HIERARCHY
ROOT root
{
    OFFSET 0.000000 0.000000 0.000000
    CHANNELS 6 Xposition Yposition Zposition Xrotation Yrotation Zrotation
    JOINT pelvis
    {
        OFFSET 0.002777 -0.010682 -0.383289
        CHANNELS 6 Xposition Yposition Zposition Xrotation Yrotation Zrotation
        JOINT left_hip
        {
            OFFSET 0.057136 0.025203 -0.097923
            CHANNELS 6 Xposition Yposition Zposition Xrotation Yrotation Zrotation
            JOINT left_knee
            {
                OFFSET 0.058830 0.001558 -0.386122
                CHANNELS 6 Xposition Yposition Zposition Xrotation Yrotation Zrotation
                JOINT left_ankle
                {
                    OFFSET -0.044687 0.028114 -0.429156
                    CHANNELS 6 Xposition Yposition Zposition Xrotation Yrotation Zrotation
                    JOINT left_foot
                    {
                        OFFSET 0.051933 -0.132733 -0.062460
                        CHANNELS 6 Xposition Yposition Zposition Xrotation Yrotation Zrotation
                        End Site
                        {
                            OFFSET 0.000000 0.000000 0.100000
                        }
                    }
                }
            }
        }
        JOINT right_hip
        {
            OFFSET -0.062039 0.017659 -0.111451
            CHANNELS 6 Xposition Yposition Zposition Xrotation Yrotation Zrotation
            JOINT right_knee
            {
                OFFSET -0.047560 0.011544 -0.366882
                CHANNELS 6 Xposition Yposition Zposition Xrotation Yrotation Zrotation
                JOINT right_ankle
                {
                    OFFSET 0.014908 0.015329 -0.437747
                    CHANNELS 6 Xposition Yposition Zposition Xrotation Yrotation Zrotation
                    JOINT right_foot
                    {
                        OFFSET -0.042437 -0.133654 -0.062314
                        CHANNELS 6 Xposition Yposition Zposition Xrotation Yrotation Zrotation
                        End Site
                        {
                            OFFSET 0.000000 0.000000 0.100000
                        }
                    }
                }
            }
        }
        JOINT spine1
        {
            OFFSET -0.003829 0.033105 0.116444
            CHANNELS 6 Xposition Yposition Zposition Xrotation Yrotation Zrotation
            JOINT spine2
            {
                OFFSET 0.011580 0.007231 0.143790
                CHANNELS 6 Xposition Yposition Zposition Xrotation Yrotation Zrotation
                JOINT spine3
                {
                    OFFSET -0.011347 -0.030856 0.059706
                    CHANNELS 6 Xposition Yposition Zposition Xrotation Yrotation Zrotation
                    JOINT neck
                    {
                        OFFSET -0.013634 0.026175 0.178654
                        CHANNELS 6 Xposition Yposition Zposition Xrotation Yrotation Zrotation
                        JOINT head
                        {
                            OFFSET 0.027281 -0.022061 0.172870
                            CHANNELS 6 Xposition Yposition Zposition Xrotation Yrotation Zrotation
                            JOINT jaw
                            {
                                OFFSET -0.018125 0.005669 -0.000252
                                CHANNELS 6 Xposition Yposition Zposition Xrotation Yrotation Zrotation
                                End Site
                                {
                                    OFFSET 0.000000 0.000000 0.100000
                                }
                            }
                            JOINT left_eye_smplhf
                            {
                                OFFSET 0.019553 -0.064969 0.043078
                                CHANNELS 6 Xposition Yposition Zposition Xrotation Yrotation Zrotation
                                End Site
                                {
                                    OFFSET 0.000000 0.000000 0.100000
                                }
                            }
                            JOINT right_eye_smplhf
                            {
                                OFFSET -0.045208 -0.064967 0.043078
                                CHANNELS 6 Xposition Yposition Zposition Xrotation Yrotation Zrotation
                                End Site
                                {
                                    OFFSET 0.000000 0.000000 0.100000
                                }
                            }
                        }
                    }
                    JOINT left_collar
                    {
                        OFFSET 0.048496 0.002767 0.091876
                        CHANNELS 6 Xposition Yposition Zposition Xrotation Yrotation Zrotation
                        JOINT left_shoulder
                        {
                            OFFSET 0.132586 0.017523 0.059158
                            CHANNELS 6 Xposition Yposition Zposition Xrotation Yrotation Zrotation
                            JOINT left_elbow
                            {
                                OFFSET 0.252925 0.048220 -0.074396
                                CHANNELS 6 Xposition Yposition Zposition Xrotation Yrotation Zrotation
                                JOINT left_wrist
                                {
                                    OFFSET 0.262201 -0.003045 0.025190
                                    CHANNELS 6 Xposition Yposition Zposition Xrotation Yrotation Zrotation
                                    JOINT left_index1
                                    {
                                        OFFSET 0.109581 -0.022452 -0.008317
                                        CHANNELS 6 Xposition Yposition Zposition Xrotation Yrotation Zrotation
                                        JOINT left_index2
                                        {
                                            OFFSET 0.033853 -0.002996 0.002586
                                            CHANNELS 6 Xposition Yposition Zposition Xrotation Yrotation Zrotation
                                            JOINT left_index3
                                            {
                                                OFFSET 0.023872 0.000488 -0.002753
                                                CHANNELS 6 Xposition Yposition Zposition Xrotation Yrotation Zrotation
                                                End Site
                                                {
                                                    OFFSET 0.000000 0.000000 0.100000
                                                }
                                            }
                                        }
                                    }
                                    JOINT left_middle1
                                    {
                                        OFFSET 0.117652 0.003196 -0.005922
                                        CHANNELS 6 Xposition Yposition Zposition Xrotation Yrotation Zrotation
                                        JOINT left_middle2
                                        {
                                            OFFSET 0.032488 0.004360 0.000794
                                            CHANNELS 6 Xposition Yposition Zposition Xrotation Yrotation Zrotation
                                            JOINT left_middle3
                                            {
                                                OFFSET 0.024857 0.004498 -0.002368
                                                CHANNELS 6 Xposition Yposition Zposition Xrotation Yrotation Zrotation
                                                End Site
                                                {
                                                    OFFSET 0.000000 0.000000 0.100000
                                                }
                                            }
                                        }
                                    }
                                    JOINT left_pinky1
                                    {
                                        OFFSET 0.090679 0.046518 -0.014838
                                        CHANNELS 6 Xposition Yposition Zposition Xrotation Yrotation Zrotation
                                        JOINT left_pinky2
                                        {
                                            OFFSET 0.017263 0.012749 -0.001391
                                            CHANNELS 6 Xposition Yposition Zposition Xrotation Yrotation Zrotation
                                            JOINT left_pinky3
                                            {
                                                OFFSET 0.016909 0.011552 -0.002076
                                                CHANNELS 6 Xposition Yposition Zposition Xrotation Yrotation Zrotation
                                                End Site
                                                {
                                                    OFFSET 0.000000 0.000000 0.100000
                                                }
                                            }
                                        }
                                    }
                                    JOINT left_ring1
                                    {
                                        OFFSET 0.105054 0.028597 -0.009128
                                        CHANNELS 6 Xposition Yposition Zposition Xrotation Yrotation Zrotation
                                        JOINT left_ring2
                                        {
                                            OFFSET 0.030196 0.005726 0.001567
                                            CHANNELS 6 Xposition Yposition Zposition Xrotation Yrotation Zrotation
                                            JOINT left_ring3
                                            {
                                                OFFSET 0.024334 0.007538 -0.001758
                                                CHANNELS 6 Xposition Yposition Zposition Xrotation Yrotation Zrotation
                                                End Site
                                                {
                                                    OFFSET 0.000000 0.000000 0.100000
                                                }
                                            }
                                        }
                                    }
                                    JOINT left_thumb1
                                    {
                                        OFFSET 0.043396 -0.029736 -0.020388
                                        CHANNELS 6 Xposition Yposition Zposition Xrotation Yrotation Zrotation
                                        JOINT left_thumb2
                                        {
                                            OFFSET 0.018397 -0.027529 0.001239
                                            CHANNELS 6 Xposition Yposition Zposition Xrotation Yrotation Zrotation
                                            JOINT left_thumb3
                                            {
                                                OFFSET 0.022101 -0.016909 -0.005770
                                                CHANNELS 6 Xposition Yposition Zposition Xrotation Yrotation Zrotation
                                                End Site
                                                {
                                                    OFFSET 0.000000 0.000000 0.100000
                                                }
                                            }
                                        }
                                    }
                                }
                            }
                        }
                    }
                    JOINT right_collar
                    {
                        OFFSET -0.051317 0.009314 0.090834
                        CHANNELS 6 Xposition Yposition Zposition Xrotation Yrotation Zrotation
                        JOINT right_shoulder
                        {
                            OFFSET -0.114867 0.014048 0.054776
                            CHANNELS 6 Xposition Yposition Zposition Xrotation Yrotation Zrotation
                            JOINT right_elbow
                            {
                                OFFSET -0.271203 0.032424 -0.033737
                                CHANNELS 6 Xposition Yposition Zposition Xrotation Yrotation Zrotation
                                JOINT right_wrist
                                {
                                    OFFSET -0.259094 0.009679 -0.006798
                                    CHANNELS 6 Xposition Yposition Zposition Xrotation Yrotation Zrotation
                                    JOINT right_index1
                                    {
                                        OFFSET -0.107669 -0.022451 -0.011561
                                        CHANNELS 6 Xposition Yposition Zposition Xrotation Yrotation Zrotation
                                        JOINT right_index2
                                        {
                                            OFFSET -0.033853 -0.002996 0.002586
                                            CHANNELS 6 Xposition Yposition Zposition Xrotation Yrotation Zrotation
                                            JOINT right_index3
                                            {
                                                OFFSET -0.023872 0.000488 -0.002751
                                                CHANNELS 6 Xposition Yposition Zposition Xrotation Yrotation Zrotation
                                                End Site
                                                {
                                                    OFFSET 0.000000 0.000000 0.100000
                                                }
                                            }
                                        }
                                    }
                                    JOINT right_middle1
                                    {
                                        OFFSET -0.115740 0.003198 -0.009166
                                        CHANNELS 6 Xposition Yposition Zposition Xrotation Yrotation Zrotation
                                        JOINT right_middle2
                                        {
                                            OFFSET -0.032488 0.004360 0.000794
                                            CHANNELS 6 Xposition Yposition Zposition Xrotation Yrotation Zrotation
                                            JOINT right_middle3
                                            {
                                                OFFSET -0.024856 0.004497 -0.002368
                                                CHANNELS 6 Xposition Yposition Zposition Xrotation Yrotation Zrotation
                                                End Site
                                                {
                                                    OFFSET 0.000000 0.000000 0.100000
                                                }
                                            }
                                        }
                                    }
                                    JOINT right_pinky1
                                    {
                                        OFFSET -0.088769 0.046519 -0.018082
                                        CHANNELS 6 Xposition Yposition Zposition Xrotation Yrotation Zrotation
                                        JOINT right_pinky2
                                        {
                                            OFFSET -0.017263 0.012749 -0.001392
                                            CHANNELS 6 Xposition Yposition Zposition Xrotation Yrotation Zrotation
                                            JOINT right_pinky3
                                            {
                                                OFFSET -0.016909 0.011552 -0.002076
                                                CHANNELS 6 Xposition Yposition Zposition Xrotation Yrotation Zrotation
                                                End Site
                                                {
                                                    OFFSET 0.000000 0.000000 0.100000
                                                }
                                            }
                                        }
                                    }
                                    JOINT right_ring1
                                    {
                                        OFFSET -0.103143 0.028600 -0.012371
                                        CHANNELS 6 Xposition Yposition Zposition Xrotation Yrotation Zrotation
                                        JOINT right_ring2
                                        {
                                            OFFSET -0.030196 0.005726 0.001567
                                            CHANNELS 6 Xposition Yposition Zposition Xrotation Yrotation Zrotation
                                            JOINT right_ring3
                                            {
                                                OFFSET -0.024335 0.007536 -0.001758
                                                CHANNELS 6 Xposition Yposition Zposition Xrotation Yrotation Zrotation
                                                End Site
                                                {
                                                    OFFSET 0.000000 0.000000 0.100000
                                                }
                                            }
                                        }
                                    }
                                    JOINT right_thumb1
                                    {
                                        OFFSET -0.041483 -0.029738 -0.023636
                                        CHANNELS 6 Xposition Yposition Zposition Xrotation Yrotation Zrotation
                                        JOINT right_thumb2
                                        {
                                            OFFSET -0.018396 -0.027528 0.001240
                                            CHANNELS 6 Xposition Yposition Zposition Xrotation Yrotation Zrotation
                                            JOINT right_thumb3
                                            {
                                                OFFSET -0.022104 -0.016907 -0.005767
                                                CHANNELS 6 Xposition Yposition Zposition Xrotation Yrotation Zrotation
                                                End Site
                                                {
                                                    OFFSET 0.000000 0.000000 0.100000
                                                }
                                            }
                                        }
                                    }
                                }
                            }
                        }
                    }
                }
            }
        }
    }
}
MOTION
Frames: 2
Frame Time: 0.033333
0.000000 0.000000 0.000000 -90.000009 0.000000 0.000000 -0.399647 0.195987 1.006913 -10.384468 0.011728 9.203343 0.057136 0.025203 -0.097923 14.550070 -1.831257 8.333764 0.058830 0.001558 -0.386122 0.535849 2.103900 -4.453776 -0.044687 0.028114 -0.429156 -4.156675 -3.523350 9.565239 0.051933 -0.132733 -0.062460 -6.521606 -5.604446 16.159532 -0.062039 0.017659 -0.111451 5.413025 -0.899225 -7.575899 -0.047560 0.011544 -0.366882 -0.526111 1.406656 -6.370127 0.014908 0.015329 -0.437747 -1.011797 -1.713888 -17.806081 -0.042437 -0.133654 -0.062314 -4.067163 8.867633 6.534562 -0.003829 0.033105 0.116445 7.417214 0.710740 0.784176 0.011580 0.007231 0.143790 3.639382 0.737587 -0.500611 -0.011347 -0.030856 0.059706 6.131608 -2.642807 -1.605361 -0.013634 0.026175 0.178654 8.183782 -3.799603 -8.738150 0.027281 -0.022061 0.172870 -3.532756 -2.802227 -6.916117 -0.018125 0.005669 -0.000252 0.976796 0.203856 0.019861 0.019553 -0.064969 0.043077 -0.737117 -2.003311 0.360906 -0.045208 -0.064967 0.043078 1.211383 0.543064 -2.986064 0.048496 0.002767 0.091876 5.575902 19.934233 0.607116 0.132586 0.017523 0.059158 20.660469 50.945931 -27.078776 0.252925 0.048220 -0.074396 -10.703106 -10.905625 -107.260487 0.262201 -0.003045 0.025190 -44.942561 -4.322658 14.951701 0.109581 -0.022452 -0.008317 3.382867 7.742087 0.205257 0.033853 -0.002996 0.002586 0.960333 31.405994 1.811464 0.023872 0.000489 -0.002753 15.589712 38.166853 -18.582260 0.117652 0.003196 -0.005922 5.300570 21.716945 9.399692 0.032488 0.004360 0.000794 4.300553 32.081976 -9.354839 0.024857 0.004497 -0.002368 -5.377378 27.299795 -16.816126 0.090679 0.046518 -0.014838 -26.651890 22.394011 -13.050869 0.017263 0.012749 -0.001391 -23.341364 11.178272 14.499109 0.016909 0.011552 -0.002076 -6.681495 22.732934 1.249933 0.105054 0.028597 -0.009128 0.736162 27.653188 -3.537200 0.030196 0.005726 0.001567 -10.560725 42.310706 -15.245331 0.024334 0.007538 -0.001758 -22.311797 20.898669 -4.624934 0.043396 -0.029736 -0.020388 39.927830 -11.421768 18.919354 0.018397 -0.027529 0.001239 -32.171717 22.266115 12.539336 0.022101 -0.016909 -0.005770 36.629611 12.510333 20.392145 -0.051317 0.009314 0.090833 1.290384 -14.414031 3.850522 -0.114867 0.014048 0.054776 36.467988 -57.383785 32.582896 -0.271203 0.032424 -0.033737 -24.049376 -1.452591 102.088827 -0.259094 0.009679 -0.006798 -34.778270 6.048516 -7.320236 -0.107669 -0.022451 -0.011562 3.992544 -9.398938 -1.453768 -0.033853 -0.002996 0.002586 5.066416 -13.379616 -1.522084 -0.023872 0.000488 -0.002751 1.740072 -18.012017 5.447073 -0.115740 0.003198 -0.009166 -1.475120 -27.106541 -11.212797 -0.032488 0.004360 0.000794 -5.775830 -38.597352 2.327019 -0.024856 0.004498 -0.002368 -1.843924 -10.079537 12.811135 -0.088769 0.046519 -0.018082 -20.942324 -28.209577 22.510857 -0.017263 0.012749 -0.001392 -38.729494 -19.970764 -22.987549 -0.016909 0.011552 -0.002076 -9.952975 -12.383312 -4.142961 -0.103143 0.028600 -0.012371 -5.731838 -40.799652 1.431591 -0.030196 0.005726 0.001567 -15.657393 -28.177903 3.927498 -0.024335 0.007536 -0.001758 -10.703942 -14.407413 6.032371 -0.041483 -0.029738 -0.023636 31.378156 7.049646 -9.024910 -0.018396 -0.027528 0.001240 -28.542789 -10.189290 -21.202791 -0.022103 -0.016907 -0.005767 27.558409 -17.013924 -13.230363
0.000000 0.000000 0.000000 -90.000009 0.000000 0.000000 -0.406834 0.188994 1.006945 -10.206934 -0.057050 9.332794 0.057136 0.025203 -0.097923 14.022912 -2.388254 8.399196 0.058830 0.001558 -0.386122 1.816303 2.035150 -4.390007 -0.044687 0.028114 -0.429156 -4.467704 -3.278892 9.388686 0.051933 -0.132733 -0.062460 -6.641449 -5.545983 16.131600 -0.062039 0.017659 -0.111451 5.998599 -1.241962 -7.632645 -0.047560 0.011544 -0.366882 -1.269946 1.270383 -6.254053 0.014908 0.015329 -0.437747 -1.299502 -1.345471 -17.598224 -0.042437 -0.133654 -0.062314 -3.837269 8.663594 6.212762 -0.003829 0.033105 0.116445 7.395348 0.417735 0.894692 0.011580 0.007231 0.143790 3.511878 0.706833 -0.621499 -0.011347 -0.030856 0.059706 6.093413 -2.591885 -1.577022 -0.013634 0.026175 0.178654 8.267614 -3.545559 -8.741084 0.027281 -0.022061 0.172870 -3.438919 -2.540025 -6.872462 -0.018125 0.005669 -0.000252 1.051453 0.202953 0.027726 0.019553 -0.064969 0.043077 -0.789099 -1.921423 0.360944 -0.045208 -0.064967 0.043078 1.180453 0.513606 -2.961320 0.048496 0.002767 0.091876 5.581386 20.079573 0.438472 0.132586 0.017523 0.059158 20.861774 50.738486 -27.130656 0.252925 0.048220 -0.074396 -10.300204 -11.759767 -107.523975 0.262201 -0.003045 0.025190 -43.567480 -3.662025 14.795968 0.109581 -0.022452 -0.008317 3.148495 9.669347 0.462004 0.033853 -0.002996 0.002586 1.589019 31.842630 1.714438 0.023872 0.000489 -0.002753 14.996802 37.480539 -18.482082 0.117652 0.003196 -0.005922 4.849603 24.194270 9.386343 0.032488 0.004360 0.000794 4.302028 30.889398 -9.102944 0.024857 0.004497 -0.002368 -5.279347 27.966089 -17.015003 0.090679 0.046518 -0.014838 -27.511345 22.638432 -12.065636 0.017263 0.012749 -0.001391 -23.325299 10.519479 14.748066 0.016909 0.011552 -0.002076 -6.125194 23.358533 1.053473 0.105054 0.028597 -0.009128 0.830937 28.950724 -3.556925 0.030196 0.005726 0.001567 -10.678897 42.031555 -15.389674 0.024334 0.007538 -0.001758 -22.712725 20.800410 -4.241291 0.043396 -0.029736 -0.020388 40.348583 -11.365919 18.915555 0.018397 -0.027529 0.001239 -32.173401 22.376383 12.692499 0.022101 -0.016909 -0.005770 36.517734 12.962792 20.078922 -0.051317 0.009314 0.090833 1.378258 -14.487820 3.963377 -0.114867 0.014048 0.054776 36.314793 -57.084709 32.141317 -0.271203 0.032424 -0.033737 -22.964151 -0.238316 102.160899 -0.259094 0.009679 -0.006798 -33.292353 5.374368 -7.390790 -0.107669 -0.022451 -0.011562 4.253921 -11.198980 -2.459126 -0.033853 -0.002996 0.002586 5.195708 -13.420083 -0.986096 -0.023872 0.000488 -0.002751 1.613959 -17.452930 5.564792 -0.115740 0.003198 -0.009166 -1.656107 -28.460778 -11.804329 -0.032488 0.004360 0.000794 -5.561236 -38.357135 2.365004 -0.024856 0.004498 -0.002368 -2.111068 -9.068272 12.813928 -0.088769 0.046519 -0.018082 -20.299230 -27.074571 22.310114 -0.017263 0.012749 -0.001392 -41.859813 -20.237409 -24.404473 -0.016909 0.011552 -0.002076 -10.043228 -13.297073 -4.526229 -0.103143 0.028600 -0.012371 -5.760858 -40.990865 0.983662 -0.030196 0.005726 0.001567 -15.683111 -29.077713 3.887779 -0.024335 0.007536 -0.001758 -11.316914 -13.332389 5.725801 -0.041483 -0.029738 -0.023636 32.488520 6.822686 -9.856124 -0.018396 -0.027528 0.001240 -28.778046 -9.919684 -20.771165 -0.022103 -0.016907 -0.005767 28.085890 -17.459808 -13.089940
